# xmcd
#
# Track frame offsets:
#	150
#	12822
#	31055
#	51292
#	59315
#	79525
#	91205
#	103190
#	117590
#	134045
#	147300
#	160782
#	177910
#	194062
#	207195
#	217487
#	236492
#	259230
#	268405
#	279497
#	294557
#	309690
#
# Disc length: 4293 seconds
#
# Revision: 1
# Processed by: cddbd v1.5.2PL0 Copyright (c) Steve Scherf et al.
# Submitted via: audiograbber 1.83.01
#
DISCID=5b10c316
DTITLE=Diversen - IJmond Pop 2
DYEAR=1992
DGENRE=Pop
TTITLE0=Jan Paul van der Meij Band - Weg van de stad
TTITLE1=Jan Paul van der Meij Band - Gypsy Eyes
TTITLE2=The Whisper - A super nova dream
TTITLE3=The Whisper - La Dida Lads
TTITLE4=Instrumetal Syndicate - Gizen
TTITLE5=Instumetal Syndicate - No cowes Allowed
TTITLE6=Five 2 One - Northern Town
TTITLE7=Five 2 One - Under Control
TTITLE8=Dreun Bulte - Henkie Koek
TTITLE9=Dreun Bulte - Echo uit het verleden
TTITLE10=Blind Man's Buff - Car Crash
TTITLE11=Blind Man's Buff - Darkness
TTITLE12=Haddock - Ballade van Kees Keesman
TTITLE13=Haddock - You couldn't have come at a better time
TTITLE14=Hammerhawk - Steel
TTITLE15=Hammerhawk - Raping the future
TTITLE16=Drift - End of the world
TTITLE17=Drift - Maria
TTITLE18=Het Groot Bambi Experiment - Velsertunnel
TTITLE19=Het Groot Bambi Experiment - Una Canzone Particolare
TTITLE20=Frank Kraaijeveld - Sea-Sight shuffle
TTITLE21=Frank Kraaijeveld - These hands
EXTD=
EXTT0=
EXTT1=
EXTT2=
EXTT3=
EXTT4=
EXTT5=
EXTT6=
EXTT7=
EXTT8=
EXTT9=
EXTT10=
EXTT11=
EXTT12=
EXTT13=
EXTT14=
EXTT15=
EXTT16=
EXTT17=
EXTT18=
EXTT19=
EXTT20=
EXTT21=
PLAYORDER=
